<svg width="23" height="25" viewBox="0 0 23 25" fill="none" xmlns="http://www.w3.org/2000/svg">
<path d="M15.2765 18.7684H21.295L19.6039 17.0772C19.1452 16.6186 18.8876 15.9966 18.8876 15.348V11.5461C18.8876 8.40154 16.8779 5.72633 14.0728 4.73487V4.32391C14.0728 2.99434 12.9949 1.9165 11.6654 1.9165C10.3358 1.9165 9.25796 2.99434 9.25796 4.32391V4.73487C6.45287 5.72633 4.44314 8.40154 4.44314 11.5461V15.348C4.44314 15.9966 4.18549 16.6186 3.72686 17.0772L2.03574 18.7684H8.05425M15.2765 18.7684V19.9721C15.2765 21.9664 13.6597 23.5832 11.6654 23.5832C9.671 23.5832 8.05425 21.9664 8.05425 19.9721V18.7684M15.2765 18.7684H8.05425" stroke="#374151" stroke-width="2.225" stroke-linecap="round" stroke-linejoin="round"/>
</svg>
